<?xml version="1.0" standalone="no"?>
<!DOCTYPE svg PUBLIC "-//W3C//DTD SVG 20010904//EN"
 "http://www.w3.org/TR/2001/REC-SVG-20010904/DTD/svg10.dtd">
<svg version="1.0" xmlns="http://www.w3.org/2000/svg"
 width="846.000000pt" height="732.000000pt" viewBox="0 0 846.000000 732.000000"
 preserveAspectRatio="xMidYMid meet">

<g transform="translate(0.000000,732.000000) scale(0.100000,-0.100000)"
fill="#000000" stroke="none">
<path d="M287 6863 c-11 -11 -8 -163 3 -163 6 0 10 35 10 85 0 85 -1 91 -13
78z"/>
<path d="M598 6864 c-12 -11 -10 -164 2 -164 6 0 10 17 10 38 0 46 12 65 36
60 15 -2 20 -14 22 -51 2 -26 8 -47 13 -47 6 0 9 24 7 58 l-3 57 -35 0 c-31 0
-36 4 -40 28 -3 16 -8 25 -12 21z"/>
<path d="M1244 6835 c-25 -60 -12 -151 23 -162 9 -3 9 5 -2 31 -19 45 -19 87
-1 131 9 20 11 35 5 35 -6 0 -17 -16 -25 -35z"/>
<path d="M134 6839 c-11 -13 -19 -35 -19 -59 0 -49 27 -80 70 -80 36 0 65 26
65 58 0 18 -6 22 -30 22 -16 0 -30 -4 -30 -10 0 -5 9 -10 20 -10 24 0 26 -13
6 -30 -23 -19 -59 -8 -74 23 -27 57 34 112 79 71 25 -23 37 -10 14 16 -24 27
-76 26 -101 -1z"/>
<path d="M929 6841 c-13 -11 -21 -23 -17 -27 4 -4 14 -1 23 6 13 11 15 4 15
-54 0 -37 4 -66 10 -66 6 0 10 33 10 80 0 44 -4 80 -9 80 -5 0 -19 -9 -32 -19z"/>
<path d="M1029 6844 c-7 -9 -13 -37 -13 -64 0 -27 6 -55 13 -64 16 -19 62 -21
79 -4 16 16 16 120 0 136 -17 17 -63 15 -79 -4z m65 -20 c3 -9 6 -28 6 -44 0
-41 -10 -60 -30 -60 -25 0 -33 15 -33 60 0 21 3 43 7 49 11 16 43 13 50 -5z"/>
<path d="M1310 6796 c0 -45 5 -69 16 -80 18 -19 75 -21 92 -4 15 15 16 148 2
148 -6 0 -10 -28 -10 -65 0 -61 -2 -65 -25 -71 -40 -10 -55 11 -55 77 0 33 -4
59 -10 59 -6 0 -10 -28 -10 -64z"/>
<path d="M1629 6844 c-7 -9 -13 -37 -13 -64 0 -56 16 -80 53 -80 40 0 51 18
51 80 0 31 -5 61 -12 68 -17 17 -63 15 -79 -4z m65 -20 c3 -9 6 -28 6 -44 0
-41 -10 -60 -30 -60 -25 0 -33 15 -33 60 0 21 3 43 7 49 11 16 43 13 50 -5z"/>
<path d="M1769 6844 c-7 -9 -13 -37 -13 -64 0 -56 16 -80 53 -80 40 0 51 18
51 80 0 31 -5 61 -12 68 -17 17 -63 15 -79 -4z m65 -20 c3 -9 6 -28 6 -44 0
-41 -10 -60 -30 -60 -25 0 -33 15 -33 60 0 21 3 43 7 49 11 16 43 13 50 -5z"/>
<path d="M1910 6845 c-17 -21 -7 -29 18 -14 22 14 56 5 50 -14 -3 -6 -14 -16
-26 -22 -28 -13 -28 -23 0 -27 28 -4 36 -36 12 -45 -9 -3 -25 -1 -35 5 -24 16
-29 15 -29 -3 0 -18 41 -29 74 -21 27 7 40 50 20 67 -10 8 -11 15 -1 30 9 14
9 24 1 37 -15 23 -67 28 -84 7z"/>
<path d="M2040 6780 c0 -47 4 -80 10 -80 6 0 10 16 10 35 0 33 2 35 35 35 19
0 35 5 35 10 0 6 -16 10 -35 10 -31 0 -35 3 -35 25 0 23 4 25 41 25 24 0 38 4
34 10 -3 6 -26 10 -51 10 l-44 0 0 -80z"/>
<path d="M2244 6839 c-11 -13 -19 -35 -19 -59 0 -50 27 -80 71 -80 18 0 36 -4
39 -10 11 -19 20 -10 23 23 7 88 5 107 -13 126 -24 28 -76 28 -101 0z m93 -29
c7 -15 10 -36 6 -48 -4 -17 -10 -21 -29 -16 -19 5 -23 3 -18 -10 8 -21 -19
-21 -36 0 -17 20 -17 69 0 89 20 24 62 15 77 -15z"/>
<path d="M2400 6796 c0 -45 5 -69 16 -80 18 -19 75 -21 92 -4 15 15 16 148 2
148 -6 0 -10 -28 -10 -65 0 -61 -2 -65 -25 -71 -40 -10 -55 11 -55 77 0 33 -4
59 -10 59 -6 0 -10 -28 -10 -64z"/>
<path d="M2560 6780 l0 -80 50 0 c58 0 68 17 13 22 -31 2 -39 7 -41 26 -3 20
1 22 37 22 51 0 54 18 4 22 -30 2 -38 7 -38 23 0 16 8 21 38 23 55 5 45 22
-13 22 l-50 0 0 -80z"/>
<path d="M2700 6845 c-20 -24 -7 -49 38 -70 27 -12 41 -25 40 -35 -4 -22 -46
-24 -69 -4 -15 14 -19 14 -19 3 0 -42 78 -55 104 -17 17 24 6 55 -22 64 -49
16 -61 24 -56 39 7 18 45 20 62 3 17 -17 28 -2 12 17 -16 19 -74 20 -90 0z"/>
<path d="M2830 6850 c0 -5 11 -10 25 -10 24 0 25 -2 25 -70 0 -40 4 -70 10
-70 6 0 10 30 10 70 0 68 1 70 25 70 14 0 25 5 25 10 0 6 -27 10 -60 10 -33 0
-60 -4 -60 -10z"/>
<path d="M2980 6780 c0 -47 4 -80 10 -80 6 0 10 33 10 80 0 47 -4 80 -10 80
-6 0 -10 -33 -10 -80z"/>
<path d="M3054 6839 c-11 -13 -19 -35 -19 -59 0 -96 117 -112 140 -20 7 28 -9
80 -28 92 -24 15 -74 8 -93 -13z m94 -31 c18 -38 -2 -82 -39 -86 -32 -4 -52
19 -52 58 0 62 65 82 91 28z"/>
<path d="M3210 6780 c0 -91 17 -109 22 -23 l3 57 39 -57 c22 -31 43 -57 48
-57 4 0 8 36 8 80 0 47 -4 80 -10 80 -5 0 -10 -25 -10 -57 l0 -56 -41 56 c-22
32 -44 57 -50 57 -5 0 -9 -36 -9 -80z"/>
<path d="M3440 6780 c0 -47 4 -80 10 -80 6 0 10 24 11 53 l0 52 24 -52 c13
-29 28 -53 33 -53 5 0 19 24 30 53 l21 52 0 -53 c1 -34 5 -52 12 -50 6 2 10 7
10 11 -1 4 -1 39 -1 78 0 84 -14 88 -45 11 -11 -28 -23 -54 -27 -57 -3 -3 -16
21 -29 54 -34 86 -49 80 -49 -19z"/>
<path d="M3646 6786 c-29 -82 -30 -86 -18 -86 5 0 14 11 20 25 8 17 20 25 37
25 18 0 28 -7 35 -25 9 -25 36 -37 28 -12 -3 6 -15 42 -28 80 -13 37 -29 67
-36 67 -6 0 -23 -33 -38 -74z m54 -8 c0 -10 -6 -18 -13 -18 -22 0 -26 11 -15
36 12 26 28 16 28 -18z"/>
<path d="M3780 6780 c0 -47 4 -80 10 -80 6 0 10 14 10 30 0 23 4 30 20 30 12
0 26 -12 35 -30 9 -16 20 -30 25 -30 13 0 12 10 -4 39 -12 21 -12 27 0 39 20
20 17 60 -5 72 -11 5 -36 10 -55 10 l-36 0 0 -80z m80 45 c17 -20 -3 -45 -36
-45 -20 0 -24 5 -24 30 0 25 4 30 24 30 13 0 29 -7 36 -15z"/>
<path d="M3920 6780 c0 -47 4 -80 10 -80 6 0 10 10 10 23 0 12 5 29 10 37 8
13 14 10 35 -15 13 -16 24 -33 25 -37 0 -9 30 -11 30 -2 0 3 -14 24 -31 46
l-32 39 34 35 c45 47 15 44 -33 -3 l-38 -37 0 37 c0 20 -4 37 -10 37 -6 0 -10
-33 -10 -80z"/>
<path d="M330 6813 c0 -5 9 -33 21 -63 19 -51 20 -55 3 -67 -10 -7 -15 -16
-11 -19 15 -16 37 10 61 73 29 76 30 83 16 83 -5 0 -15 -18 -21 -40 -7 -22
-15 -40 -19 -40 -4 0 -12 18 -19 40 -6 22 -16 40 -21 40 -6 0 -10 -3 -10 -7z"/>
<path d="M460 6738 c0 -45 4 -78 10 -78 6 0 10 11 10 24 0 19 4 22 25 18 35
-6 55 14 55 58 0 46 -15 60 -63 58 l-37 -1 0 -79z m75 22 c0 -31 -3 -35 -25
-35 -19 0 -26 6 -28 23 -5 36 5 54 30 50 19 -2 23 -9 23 -38z"/>
<path d="M736 6804 c-9 -8 -16 -28 -16 -44 0 -47 38 -72 84 -54 28 11 18 26
-12 19 -20 -4 -33 -1 -42 10 -11 13 -7 15 28 15 49 0 59 12 38 45 -19 29 -57
33 -80 9z m62 -21 c2 -8 -6 -13 -22 -13 -17 0 -26 5 -26 16 0 19 41 16 48 -3z"/>
<path d="M1518 6798 c-2 -15 -11 -24 -26 -26 -26 -4 -20 -22 9 -22 12 0 19 -7
19 -20 0 -11 5 -20 10 -20 6 0 10 9 10 20 0 13 7 20 20 20 11 0 20 5 20 10 0
6 -9 10 -20 10 -15 0 -20 7 -20 25 0 31 -17 33 -22 3z"/>
<path d="M1026 6553 c17 -50 17 -86 -1 -129 -11 -26 -11 -34 -2 -31 35 11 48
102 23 162 -20 47 -37 45 -20 -2z"/>
<path d="M120 6516 c0 -45 5 -69 16 -80 18 -19 75 -21 92 -4 15 15 16 148 2
148 -6 0 -10 -28 -10 -65 0 -61 -2 -65 -25 -71 -40 -10 -55 11 -55 77 0 33 -4
59 -10 59 -6 0 -10 -28 -10 -64z"/>
<path d="M420 6500 c0 -78 16 -112 22 -47 3 29 7 33 43 38 41 5 34 15 -15 21
-17 2 -25 9 -25 23 0 16 8 21 38 23 55 5 45 22 -13 22 l-50 0 0 -80z"/>
<path d="M559 6564 c-7 -9 -13 -37 -13 -64 0 -56 16 -80 53 -80 40 0 51 18 51
80 0 31 -5 61 -12 68 -17 17 -63 15 -79 -4z m65 -20 c3 -9 6 -28 6 -44 0 -41
-10 -60 -30 -60 -25 0 -33 15 -33 60 0 21 3 43 7 49 11 16 43 13 50 -5z"/>
<path d="M700 6565 c-17 -21 -7 -29 18 -14 22 14 56 5 50 -14 -3 -6 -14 -16
-26 -22 -28 -13 -28 -23 0 -27 28 -4 36 -36 12 -45 -9 -3 -25 -1 -35 5 -24 16
-29 15 -29 -3 0 -18 41 -29 74 -21 27 7 40 50 20 67 -10 8 -11 15 -1 30 9 14
9 24 1 37 -15 23 -67 28 -84 7z"/>
<path d="M830 6500 c0 -47 4 -80 10 -80 6 0 10 16 10 35 0 33 2 35 35 35 19 0
35 5 35 10 0 6 -16 10 -35 10 -31 0 -35 3 -35 25 0 23 4 25 41 25 24 0 38 4
34 10 -3 6 -26 10 -51 10 l-44 0 0 -80z"/>
<path d="M328 6518 c-2 -15 -11 -24 -26 -26 -26 -4 -20 -22 9 -22 12 0 19 -7
19 -20 0 -11 5 -20 10 -20 6 0 10 9 10 20 0 13 7 20 20 20 11 0 20 5 20 10 0
6 -9 10 -20 10 -15 0 -20 7 -20 25 0 31 -17 33 -22 3z"/>
<path d="M1128 6293 c523 -2 1381 -2 1905 0 523 1 95 2 -953 2 -1048 0 -1476
-1 -952 -2z"/>
<path d="M3125 6115 c-321 -51 -596 -183 -814 -390 -137 -131 -243 -293 -302
-461 -75 -216 -68 -518 16 -729 128 -319 371 -471 659 -410 290 61 476 302
476 615 0 156 -48 277 -149 376 -177 172 -412 173 -639 2 -35 -27 -67 -48 -71
-48 -25 0 -28 117 -6 205 104 397 603 711 1059 665 245 -25 445 -118 609 -284
352 -356 449 -969 263 -1671 -104 -391 -291 -787 -552 -1165 -220 -319 -544
-678 -799 -885 -180 -146 -444 -282 -765 -396 -131 -46 -135 -48 -133 -75 3
-35 46 -80 91 -95 54 -18 220 -5 331 25 402 111 870 352 1287 664 306 228 579
502 756 757 94 137 268 432 358 610 197 389 261 638 261 1015 0 960 -497 1561
-1384 1675 -143 18 -439 18 -552 0z"/>
<path d="M5758 5667 c-94 -27 -174 -108 -199 -201 -15 -56 -6 -153 20 -204 51
-100 142 -156 256 -156 122 -1 219 62 267 171 27 61 27 165 0 226 -58 131
-207 202 -344 164z"/>
<path d="M5720 4219 c-184 -83 -228 -322 -85 -465 65 -65 129 -89 224 -82 293
21 364 420 96 544 -66 31 -170 33 -235 3z"/>
</g>
</svg>
